<?xml version="1.0" encoding="UTF-8"?>
<svg version="1.1" xmlns="http://www.w3.org/2000/svg" width="192" height="192">
<path d="M0 0 C19.62006594 16.15916598 33.74272687 36.69134457 38 62.125 C39.63318469 92.12378686 35.59648375 118.88794141 15 142.125 C-0.30117755 159.18205039 -22.20939098 172.91095196 -45.56591797 174.34375 C-65.36462478 175.1185557 -83.0373232 174.44705685 -101 165.125 C-102.35158203 164.46371094 -102.35158203 164.46371094 -103.73046875 163.7890625 C-127.35772957 151.72549633 -141.91273077 130.62793608 -151.38671875 106.609375 C-159.02696364 82.26782286 -154.80961449 53.85562294 -143.484375 31.61328125 C-130.79905072 7.94566245 -108.24520108 -8.43150352 -82.9375 -16.375 C-55.16935417 -23.35252465 -22.66480185 -17.39712042 0 0 Z " fill="#00B999" transform="translate(154,17.875)"/>
<path d="M0 0 C14.80875 -0.103125 29.6175 -0.20625 44.875 -0.3125 C49.5347998 -0.35802002 54.19459961 -0.40354004 58.99560547 -0.45043945 C64.72680664 -0.47302246 64.72680664 -0.47302246 67.41775513 -0.47721863 C69.2798766 -0.48484984 71.14197481 -0.50233791 73.00393677 -0.52787781 C94.73526387 -0.81081704 94.73526387 -0.81081704 102.84542847 6.7117157 C112.37256627 16.68241161 112.52271083 28.13249125 112.34765625 41.1796875 C112.07632042 48.24350156 110.52123547 53.80341245 107 60 C106.49339844 60.93972656 106.49339844 60.93972656 105.9765625 61.8984375 C102.41997394 67.16646718 95.78457004 69.94849551 90 72 C85.65257081 72.70761347 81.40167119 72.98580106 77 73 C77.38744385 73.4125 77.7748877 73.825 78.17407227 74.25 C91.45986804 88.40676885 91.45986804 88.40676885 96.3515625 94.10546875 C99.13029614 97.29903704 102.01574505 100.39716604 104.88671875 103.5078125 C107.17304034 106.20406605 109.06092905 109.0474217 111 112 C81.82434929 114.0799751 81.82434929 114.0799751 75.73828125 109.609375 C72.89036717 106.76471143 70.973032 103.48942341 69 100 C67.82960657 98.59256486 66.62456515 97.21264023 65.375 95.875 C64.83617188 95.25367188 64.29734375 94.63234375 63.7421875 93.9921875 C61.68499601 91.63979365 59.59403085 89.31965034 57.5 87 C54.82951656 84.04130249 52.17701942 81.07073528 49.5625 78.0625 C46.75177475 74.83440488 43.884201 71.66261557 41 68.5 C34.70814856 61.58661308 34.70814856 61.58661308 32.125 58.6875 C31.35542969 57.82705078 31.35542969 57.82705078 30.5703125 56.94921875 C28.52993491 54.41651125 26.79216279 51.71217036 25 49 C25.75977142 48.99413376 26.51954285 48.98826752 27.30233765 48.98222351 C34.45398436 48.92437808 41.60527942 48.85234938 48.75661278 48.76428509 C52.4334228 48.71951053 56.1101202 48.68027061 59.78710938 48.65356445 C63.33402003 48.62760131 66.88049894 48.58725009 70.4271431 48.53681374 C71.78190374 48.52009735 73.13673913 48.50861284 74.49158859 48.50238609 C76.38562519 48.49279764 78.27952777 48.46307157 80.17333984 48.43237305 C81.79216568 48.41571846 81.79216568 48.41571846 83.44369507 48.39872742 C84.2872757 48.26714737 85.13085632 48.13556732 86 48 C88.07477826 44.88783261 88.25522588 44.15939492 88.265625 40.62109375 C88.26820313 39.78255859 88.27078125 38.94402344 88.2734375 38.08007812 C88.26183594 36.77200195 88.26183594 36.77200195 88.25 35.4375 C88.25773437 34.56158203 88.26546875 33.68566406 88.2734375 32.78320312 C88.26957031 31.52733398 88.26957031 31.52733398 88.265625 30.24609375 C88.26224121 29.09645142 88.26224121 29.09645142 88.25878906 27.92358398 C88.16588484 25.76154346 88.16588484 25.76154346 86 24 C83.28965362 23.66767316 83.28965362 23.66767316 80.08154297 23.68115234 C78.19375122 23.65106079 78.19375122 23.65106079 76.26782227 23.62036133 C74.92594625 23.60862764 73.58406796 23.59715099 72.2421875 23.5859375 C70.41699585 23.55947144 70.41699585 23.55947144 68.55493164 23.5324707 C63.99509063 23.4692459 59.43502491 23.42316847 54.875 23.375 C44.68625 23.25125 34.4975 23.1275 24 23 C24 52.37 24 81.74 24 112 C16.08 112 8.16 112 0 112 C0 75.04 0 38.08 0 0 Z " fill="#000101" transform="translate(40,40)"/>
<path d="M0 0 C19.62006594 16.15916598 33.74272687 36.69134457 38 62.125 C39.63318469 92.12378686 35.59648375 118.88794141 15 142.125 C-0.30117755 159.18205039 -22.20939098 172.91095196 -45.56591797 174.34375 C-65.36462478 175.1185557 -83.0373232 174.44705685 -101 165.125 C-102.35158203 164.46371094 -102.35158203 164.46371094 -103.73046875 163.7890625 C-127.35772957 151.72549633 -141.91273077 130.62793608 -151.38671875 106.609375 C-159.02696364 82.26782286 -154.80961449 53.85562294 -143.484375 31.61328125 C-130.79905072 7.94566245 -108.24520108 -8.43150352 -82.9375 -16.375 C-55.16935417 -23.35252465 -22.66480185 -17.39712042 0 0 Z M-119 11.125 C-119.85722656 11.88683594 -120.71445313 12.64867188 -121.59765625 13.43359375 C-130.63616158 21.94124406 -136.81185528 31.95454205 -141.875 43.1875 C-142.14916748 43.7870752 -142.42333496 44.38665039 -142.70581055 45.00439453 C-147.20474641 55.54986666 -148.56345289 66.43222436 -148.5 77.8125 C-148.49355469 79.03420898 -148.48710937 80.25591797 -148.48046875 81.51464844 C-147.98189253 106.37129719 -136.75649308 128.31989939 -118.97265625 145.4921875 C-97.94583556 164.11515352 -74.5490376 169.32836949 -47.09082031 168.34277344 C-24.12651545 166.72475133 -3.00704584 152.77601017 12 136.125 C29.35688706 115.2484261 33.98106313 90.62017485 32 64.125 C29.42468982 41.19373382 15.13149837 20.62268807 -2.2890625 6.234375 C-37.76675256 -20.10691996 -85.97395196 -18.35398337 -119 11.125 Z " fill="#000403" transform="translate(154,17.875)"/>
<path d="M0 0 C20.46 0 40.92 0 62 0 C62 0.33 62 0.66 62 1 C42.2 1.33 22.4 1.66 2 2 C2 2.99 2 3.98 2 5 C1.34 4.67 0.68 4.34 0 4 C0 2.68 0 1.36 0 0 Z " fill="#00A98C" transform="translate(64,88)"/>
<path d="M0 0 C4 1 4 1 4 1 Z " fill="#000000" transform="translate(117,191)"/>
<path d="M0 0 C4 1 4 1 4 1 Z " fill="#000000" transform="translate(71,191)"/>
<path d="M0 0 C1 4 1 4 1 4 Z " fill="#000000" transform="translate(191,117)"/>
<path d="M0 0 C1 4 1 4 1 4 Z " fill="#000000" transform="translate(0,117)"/>
<path d="M0 0 C1 4 1 4 1 4 Z " fill="#000000" transform="translate(191,71)"/>
<path d="M0 0 C1 4 1 4 1 4 Z " fill="#000000" transform="translate(0,71)"/>
<path d="M0 0 C4 1 4 1 4 1 Z " fill="#000000" transform="translate(117,0)"/>
<path d="M0 0 C4 1 4 1 4 1 Z " fill="#000000" transform="translate(71,0)"/>
<path d="M0 0 C2 1 2 1 2 1 Z " fill="#000000" transform="translate(122,190)"/>
<path d="M0 0 C2 1 2 1 2 1 Z " fill="#000000" transform="translate(68,190)"/>
<path d="M0 0 C2 1 2 1 2 1 Z " fill="#000000" transform="translate(125,189)"/>
<path d="M0 0 C2 1 2 1 2 1 Z " fill="#000000" transform="translate(65,189)"/>
<path d="M0 0 C2 1 2 1 2 1 Z " fill="#000000" transform="translate(128,188)"/>
<path d="M0 0 C2 1 2 1 2 1 Z " fill="#000000" transform="translate(62,188)"/>
<path d="M0 0 C2 1 2 1 2 1 Z " fill="#000000" transform="translate(131,187)"/>
<path d="M0 0 C2 1 2 1 2 1 Z " fill="#000000" transform="translate(59,187)"/>
<path d="M0 0 C2 1 2 1 2 1 Z " fill="#000000" transform="translate(133,186)"/>
<path d="M0 0 C2 1 2 1 2 1 Z " fill="#000000" transform="translate(57,186)"/>
<path d="M0 0 C2 1 2 1 2 1 Z " fill="#000000" transform="translate(135,185)"/>
<path d="M0 0 C2 1 2 1 2 1 Z " fill="#000000" transform="translate(55,185)"/>
<path d="M0 0 C2 1 2 1 2 1 Z " fill="#000000" transform="translate(143,181)"/>
<path d="M0 0 C2 1 2 1 2 1 Z " fill="#000000" transform="translate(47,181)"/>
<path d="M0 0 C2 1 2 1 2 1 Z " fill="#000000" transform="translate(145,180)"/>
<path d="M0 0 C2 1 2 1 2 1 Z " fill="#000000" transform="translate(45,180)"/>
<path d="M0 0 C2 1 2 1 2 1 Z " fill="#000000" transform="translate(148,178)"/>
<path d="M0 0 C2 1 2 1 2 1 Z " fill="#000000" transform="translate(42,178)"/>
<path d="M0 0 C2 1 2 1 2 1 Z " fill="#000000" transform="translate(151,176)"/>
<path d="M0 0 C2 1 2 1 2 1 Z " fill="#000000" transform="translate(39,176)"/>
<path d="M0 0 C2 1 2 1 2 1 Z " fill="#000000" transform="translate(155,173)"/>
<path d="M0 0 C2 1 2 1 2 1 Z " fill="#000000" transform="translate(35,173)"/>
<path d="" fill="#000000" transform="translate(0,0)"/>
<path d="" fill="#000000" transform="translate(0,0)"/>
<path d="" fill="#000000" transform="translate(0,0)"/>
<path d="" fill="#000000" transform="translate(0,0)"/>
<path d="" fill="#000000" transform="translate(0,0)"/>
<path d="" fill="#000000" transform="translate(0,0)"/>
<path d="" fill="#000000" transform="translate(0,0)"/>
<path d="" fill="#000000" transform="translate(0,0)"/>
<path d="" fill="#000000" transform="translate(0,0)"/>
<path d="" fill="#000000" transform="translate(0,0)"/>
<path d="" fill="#000000" transform="translate(0,0)"/>
<path d="" fill="#000000" transform="translate(0,0)"/>
<path d="" fill="#000000" transform="translate(0,0)"/>
<path d="" fill="#000000" transform="translate(0,0)"/>
<path d="" fill="#000000" transform="translate(0,0)"/>
<path d="" fill="#000000" transform="translate(0,0)"/>
<path d="" fill="#000000" transform="translate(0,0)"/>
<path d="" fill="#000000" transform="translate(0,0)"/>
<path d="" fill="#000000" transform="translate(0,0)"/>
<path d="" fill="#000000" transform="translate(0,0)"/>
<path d="" fill="#000000" transform="translate(0,0)"/>
<path d="" fill="#000000" transform="translate(0,0)"/>
<path d="" fill="#000000" transform="translate(0,0)"/>
<path d="" fill="#000000" transform="translate(0,0)"/>
<path d="" fill="#000000" transform="translate(0,0)"/>
<path d="" fill="#000000" transform="translate(0,0)"/>
<path d="" fill="#000000" transform="translate(0,0)"/>
<path d="" fill="#000000" transform="translate(0,0)"/>
<path d="" fill="#000000" transform="translate(0,0)"/>
<path d="" fill="#000000" transform="translate(0,0)"/>
<path d="" fill="#000000" transform="translate(0,0)"/>
<path d="" fill="#000000" transform="translate(0,0)"/>
<path d="" fill="#000000" transform="translate(0,0)"/>
<path d="" fill="#000000" transform="translate(0,0)"/>
<path d="" fill="#000000" transform="translate(0,0)"/>
<path d="" fill="#000000" transform="translate(0,0)"/>
<path d="" fill="#000000" transform="translate(0,0)"/>
<path d="" fill="#000000" transform="translate(0,0)"/>
<path d="" fill="#000000" transform="translate(0,0)"/>
<path d="" fill="#000000" transform="translate(0,0)"/>
<path d="" fill="#000000" transform="translate(0,0)"/>
<path d="" fill="#000000" transform="translate(0,0)"/>
<path d="" fill="#000000" transform="translate(0,0)"/>
<path d="" fill="#000000" transform="translate(0,0)"/>
<path d="M0 0 C2 1 2 1 2 1 Z " fill="#000000" transform="translate(155,18)"/>
<path d="M0 0 C2 1 2 1 2 1 Z " fill="#000000" transform="translate(35,18)"/>
<path d="M0 0 C2 1 2 1 2 1 Z " fill="#000000" transform="translate(151,15)"/>
<path d="M0 0 C2 1 2 1 2 1 Z " fill="#000000" transform="translate(39,15)"/>
<path d="M0 0 C2 1 2 1 2 1 Z " fill="#000000" transform="translate(148,13)"/>
<path d="M0 0 C2 1 2 1 2 1 Z " fill="#000000" transform="translate(42,13)"/>
<path d="M0 0 C2 1 2 1 2 1 Z " fill="#000000" transform="translate(145,11)"/>
<path d="M0 0 C2 1 2 1 2 1 Z " fill="#000000" transform="translate(45,11)"/>
<path d="M0 0 C2 1 2 1 2 1 Z " fill="#000000" transform="translate(143,10)"/>
<path d="M0 0 C2 1 2 1 2 1 Z " fill="#000000" transform="translate(47,10)"/>
<path d="M0 0 C2 1 2 1 2 1 Z " fill="#000000" transform="translate(135,6)"/>
<path d="M0 0 C2 1 2 1 2 1 Z " fill="#000000" transform="translate(55,6)"/>
<path d="M0 0 C2 1 2 1 2 1 Z " fill="#000000" transform="translate(133,5)"/>
<path d="M0 0 C2 1 2 1 2 1 Z " fill="#000000" transform="translate(57,5)"/>
<path d="M0 0 C2 1 2 1 2 1 Z " fill="#000000" transform="translate(131,4)"/>
<path d="M0 0 C2 1 2 1 2 1 Z " fill="#000000" transform="translate(59,4)"/>
<path d="M0 0 C2 1 2 1 2 1 Z " fill="#000000" transform="translate(128,3)"/>
<path d="M0 0 C2 1 2 1 2 1 Z " fill="#000000" transform="translate(62,3)"/>
<path d="M0 0 C2 1 2 1 2 1 Z " fill="#000000" transform="translate(125,2)"/>
<path d="M0 0 C2 1 2 1 2 1 Z " fill="#000000" transform="translate(65,2)"/>
<path d="M0 0 C2 1 2 1 2 1 Z " fill="#000000" transform="translate(122,1)"/>
<path d="M0 0 C2 1 2 1 2 1 Z " fill="#000000" transform="translate(68,1)"/>
<path d="" fill="#000000" transform="translate(0,0)"/>
<path d="" fill="#000000" transform="translate(0,0)"/>
<path d="" fill="#000000" transform="translate(0,0)"/>
<path d="" fill="#000000" transform="translate(0,0)"/>
<path d="" fill="#000000" transform="translate(0,0)"/>
<path d="" fill="#000000" transform="translate(0,0)"/>
<path d="" fill="#000000" transform="translate(0,0)"/>
<path d="" fill="#000000" transform="translate(0,0)"/>
<path d="" fill="#000000" transform="translate(0,0)"/>
<path d="" fill="#000000" transform="translate(0,0)"/>
<path d="" fill="#000000" transform="translate(0,0)"/>
<path d="" fill="#000000" transform="translate(0,0)"/>
<path d="" fill="#000000" transform="translate(0,0)"/>
<path d="" fill="#000000" transform="translate(0,0)"/>
<path d="" fill="#000000" transform="translate(0,0)"/>
<path d="" fill="#000000" transform="translate(0,0)"/>
<path d="" fill="#000000" transform="translate(0,0)"/>
<path d="" fill="#000000" transform="translate(0,0)"/>
<path d="" fill="#000000" transform="translate(0,0)"/>
<path d="" fill="#000000" transform="translate(0,0)"/>
<path d="" fill="#000000" transform="translate(0,0)"/>
<path d="" fill="#000000" transform="translate(0,0)"/>
<path d="" fill="#000000" transform="translate(0,0)"/>
<path d="" fill="#000000" transform="translate(0,0)"/>
<path d="" fill="#000000" transform="translate(0,0)"/>
<path d="" fill="#000000" transform="translate(0,0)"/>
<path d="" fill="#000000" transform="translate(0,0)"/>
<path d="" fill="#000000" transform="translate(0,0)"/>
<path d="" fill="#000000" transform="translate(0,0)"/>
<path d="" fill="#000000" transform="translate(0,0)"/>
<path d="" fill="#000000" transform="translate(0,0)"/>
<path d="" fill="#000000" transform="translate(0,0)"/>
<path d="" fill="#000000" transform="translate(0,0)"/>
<path d="" fill="#000000" transform="translate(0,0)"/>
<path d="" fill="#000000" transform="translate(0,0)"/>
<path d="" fill="#000000" transform="translate(0,0)"/>
<path d="" fill="#000000" transform="translate(0,0)"/>
<path d="" fill="#000000" transform="translate(0,0)"/>
<path d="" fill="#000000" transform="translate(0,0)"/>
<path d="" fill="#000000" transform="translate(0,0)"/>
<path d="" fill="#000000" transform="translate(0,0)"/>
<path d="" fill="#000000" transform="translate(0,0)"/>
<path d="" fill="#000000" transform="translate(0,0)"/>
<path d="" fill="#000000" transform="translate(0,0)"/>
<path d="" fill="#000000" transform="translate(0,0)"/>
<path d="" fill="#000000" transform="translate(0,0)"/>
<path d="" fill="#000000" transform="translate(0,0)"/>
<path d="" fill="#000000" transform="translate(0,0)"/>
<path d="" fill="#000000" transform="translate(0,0)"/>
<path d="" fill="#000000" transform="translate(0,0)"/>
<path d="" fill="#000000" transform="translate(0,0)"/>
<path d="" fill="#000000" transform="translate(0,0)"/>
<path d="" fill="#000000" transform="translate(0,0)"/>
<path d="" fill="#000000" transform="translate(0,0)"/>
<path d="" fill="#000000" transform="translate(0,0)"/>
<path d="" fill="#000000" transform="translate(0,0)"/>
<path d="" fill="#000000" transform="translate(0,0)"/>
<path d="" fill="#000000" transform="translate(0,0)"/>
<path d="" fill="#000000" transform="translate(0,0)"/>
<path d="" fill="#000000" transform="translate(0,0)"/>
<path d="" fill="#000000" transform="translate(0,0)"/>
<path d="" fill="#000000" transform="translate(0,0)"/>
<path d="" fill="#000000" transform="translate(0,0)"/>
<path d="" fill="#000000" transform="translate(0,0)"/>
<path d="" fill="#000000" transform="translate(0,0)"/>
<path d="" fill="#000000" transform="translate(0,0)"/>
<path d="" fill="#000000" transform="translate(0,0)"/>
<path d="" fill="#000000" transform="translate(0,0)"/>
<path d="" fill="#000000" transform="translate(0,0)"/>
<path d="" fill="#000000" transform="translate(0,0)"/>
<path d="" fill="#000000" transform="translate(0,0)"/>
<path d="" fill="#000000" transform="translate(0,0)"/>
<path d="" fill="#000000" transform="translate(0,0)"/>
<path d="" fill="#000000" transform="translate(0,0)"/>
<path d="" fill="#000000" transform="translate(0,0)"/>
<path d="" fill="#000000" transform="translate(0,0)"/>
<path d="" fill="#000000" transform="translate(0,0)"/>
<path d="" fill="#000000" transform="translate(0,0)"/>
<path d="" fill="#000000" transform="translate(0,0)"/>
<path d="" fill="#000000" transform="translate(0,0)"/>
<path d="" fill="#000000" transform="translate(0,0)"/>
<path d="" fill="#000000" transform="translate(0,0)"/>
<path d="" fill="#000000" transform="translate(0,0)"/>
<path d="" fill="#000000" transform="translate(0,0)"/>
<path d="" fill="#000000" transform="translate(0,0)"/>
<path d="" fill="#000000" transform="translate(0,0)"/>
<path d="" fill="#000000" transform="translate(0,0)"/>
<path d="" fill="#000000" transform="translate(0,0)"/>
<path d="" fill="#000000" transform="translate(0,0)"/>
<path d="" fill="#000000" transform="translate(0,0)"/>
<path d="" fill="#000000" transform="translate(0,0)"/>
<path d="" fill="#000000" transform="translate(0,0)"/>
<path d="" fill="#000000" transform="translate(0,0)"/>
<path d="" fill="#000000" transform="translate(0,0)"/>
<path d="" fill="#000000" transform="translate(0,0)"/>
<path d="" fill="#000000" transform="translate(0,0)"/>
<path d="" fill="#000000" transform="translate(0,0)"/>
<path d="" fill="#000000" transform="translate(0,0)"/>
<path d="" fill="#000000" transform="translate(0,0)"/>
<path d="" fill="#000000" transform="translate(0,0)"/>
<path d="" fill="#000000" transform="translate(0,0)"/>
<path d="" fill="#000000" transform="translate(0,0)"/>
<path d="" fill="#000000" transform="translate(0,0)"/>
<path d="" fill="#000000" transform="translate(0,0)"/>
<path d="" fill="#000000" transform="translate(0,0)"/>
<path d="" fill="#000000" transform="translate(0,0)"/>
<path d="" fill="#000000" transform="translate(0,0)"/>
<path d="" fill="#000000" transform="translate(0,0)"/>
<path d="" fill="#000000" transform="translate(0,0)"/>
<path d="" fill="#000000" transform="translate(0,0)"/>
<path d="" fill="#000000" transform="translate(0,0)"/>
<path d="" fill="#000000" transform="translate(0,0)"/>
<path d="" fill="#000000" transform="translate(0,0)"/>
<path d="" fill="#000000" transform="translate(0,0)"/>
<path d="" fill="#000000" transform="translate(0,0)"/>
<path d="" fill="#000000" transform="translate(0,0)"/>
<path d="" fill="#000000" transform="translate(0,0)"/>
<path d="" fill="#000000" transform="translate(0,0)"/>
<path d="" fill="#000000" transform="translate(0,0)"/>
<path d="" fill="#000000" transform="translate(0,0)"/>
</svg>
